<svg xmlns="http://www.w3.org/2000/svg" xmlns:xlink="http://www.w3.org/1999/xlink" width="500" zoomAndPan="magnify" viewBox="0 0 375 374.999991" height="500" preserveAspectRatio="xMidYMid meet" version="1.0"><defs><g/><clipPath id="7c3b3e8c98"><path d="M 90 47 L 285 47 L 285 241 L 90 241 Z M 90 47 " clip-rule="nonzero"/></clipPath><clipPath id="314c9592c6"><path d="M 80.046875 144.421875 L 187.667969 36.800781 L 294.917969 144.054688 L 187.300781 251.671875 Z M 80.046875 144.421875 " clip-rule="nonzero"/></clipPath><clipPath id="a3518bf39a"><path d="M 243.882812 168.066406 C 250.417969 178.347656 248.105469 191.675781 238.300781 199.792969 C 229.5625 207.0625 215.792969 206.660156 207.347656 198.726562 C 202.757812 194.359375 197.617188 191.199219 191.265625 190.355469 C 182.601562 189.179688 175.074219 191.714844 168.722656 197.773438 C 160.203125 205.851562 148.894531 207.246094 138.867188 201.335938 C 137.253906 200.378906 135.820312 199.09375 134.316406 197.957031 C 125.171875 188.59375 124.953125 173.539062 133.910156 164.285156 C 142.871094 155.03125 158.402344 154.113281 168.207031 163.332031 C 178.011719 172.546875 188.585938 174.015625 199.492188 168.617188 C 202.136719 167.296875 204.523438 165.277344 206.722656 163.292969 C 218.179688 152.867188 235.585938 155.070312 243.882812 168.066406 Z M 168.976562 124.519531 C 175.332031 118.460938 182.859375 115.925781 191.558594 117.066406 C 197.875 117.945312 203.015625 121.105469 207.640625 125.4375 C 216.085938 133.367188 229.855469 133.773438 238.558594 126.539062 C 248.363281 118.421875 250.675781 105.09375 244.140625 94.8125 C 235.878906 81.777344 218.4375 79.613281 207.019531 90.003906 C 204.777344 92.023438 202.390625 94.042969 199.75 95.363281 C 188.84375 100.761719 178.304688 99.257812 168.5 90.039062 C 158.695312 80.824219 143.679688 81.226562 134.167969 91.03125 C 125.246094 100.25 125.503906 115.339844 134.574219 124.703125 C 136.113281 125.804688 137.511719 127.125 139.125 128.082031 C 149.148438 133.992188 160.460938 132.597656 168.976562 124.519531 Z M 243.515625 126.5 C 241.277344 128.519531 238.890625 130.539062 236.246094 131.863281 C 225.339844 137.261719 214.800781 135.753906 205 126.539062 C 198.757812 120.664062 190.386719 118.679688 182.675781 120.589844 C 178.269531 121.398438 173.933594 123.453125 170.226562 126.796875 C 168.023438 128.777344 165.636719 130.796875 162.992188 132.121094 C 152.085938 137.515625 141.511719 136.046875 131.707031 126.832031 C 121.90625 117.617188 106.371094 118.535156 97.414062 127.785156 C 88.453125 137.039062 88.710938 152.132812 97.816406 161.457031 C 99.324219 162.597656 100.753906 163.882812 102.371094 164.835938 C 112.394531 170.746094 123.703125 169.351562 132.222656 161.273438 C 138.574219 155.214844 146.101562 152.683594 154.769531 153.855469 C 161.121094 154.703125 166.261719 157.859375 170.851562 162.230469 C 176.761719 167.773438 185.316406 169.644531 192.882812 167.738281 C 197.398438 166.820312 201.695312 164.578125 205.476562 161.015625 C 211.828125 154.957031 219.355469 152.425781 228.058594 153.5625 C 234.375 154.445312 239.515625 157.601562 244.140625 161.933594 C 252.585938 169.867188 266.355469 170.269531 275.058594 163.035156 C 284.863281 154.921875 287.175781 141.59375 280.640625 131.3125 C 272.378906 118.277344 254.9375 116.109375 243.515625 126.5 Z M 204.523438 88.976562 C 204.558594 88.9375 204.558594 88.9375 204.59375 88.902344 C 213.921875 79.355469 213.699219 64.007812 204.152344 54.679688 C 194.792969 45.464844 179.480469 45.648438 170.117188 55.085938 C 160.863281 64.484375 160.753906 79.722656 170.226562 89.121094 C 179.699219 98.523438 195.269531 98.449219 204.523438 88.976562 Z M 170.152344 199.867188 C 160.863281 209.230469 160.714844 224.429688 170.226562 233.867188 C 179.738281 243.304688 195.230469 243.230469 204.558594 233.757812 C 213.921875 224.171875 213.773438 208.824219 204.191406 199.460938 C 194.792969 190.207031 179.480469 190.390625 170.152344 199.867188 Z M 170.152344 199.867188 " clip-rule="nonzero"/></clipPath><clipPath id="ebee904fe5"><path d="M 80.78125 144.421875 L 187.667969 37.535156 L 294.1875 144.054688 L 187.300781 250.941406 Z M 80.78125 144.421875 " clip-rule="nonzero"/></clipPath><clipPath id="24c5b3ae98"><path d="M 80.777344 144.421875 L 187.699219 37.496094 L 294.257812 144.058594 L 187.335938 250.980469 Z M 80.777344 144.421875 " clip-rule="nonzero"/></clipPath><linearGradient x1="-124.58069" gradientTransform="matrix(0.36605, -0.36605, 0.36605, 0.36605, 80.778415, 144.422177)" y1="145.548004" x2="417.094587" gradientUnits="userSpaceOnUse" y2="145.548004" id="4b476b729b"><stop stop-opacity="1" stop-color="rgb(21.998596%, 28.199768%, 94.499207%)" offset="0"/><stop stop-opacity="1" stop-color="rgb(21.998596%, 28.199768%, 94.499207%)" offset="0.125"/><stop stop-opacity="1" stop-color="rgb(21.998596%, 28.199768%, 94.499207%)" offset="0.1875"/><stop stop-opacity="1" stop-color="rgb(21.998596%, 28.199768%, 94.499207%)" offset="0.21875"/><stop stop-opacity="1" stop-color="rgb(21.998596%, 28.199768%, 94.499207%)" offset="0.226562"/><stop stop-opacity="1" stop-color="rgb(22.290039%, 28.192139%, 94.444275%)" offset="0.230469"/><stop stop-opacity="1" stop-color="rgb(22.581482%, 28.184509%, 94.390869%)" offset="0.234375"/><stop stop-opacity="1" stop-color="rgb(23.100281%, 28.16925%, 94.294739%)" offset="0.238281"/><stop stop-opacity="1" stop-color="rgb(23.620605%, 28.155518%, 94.198608%)" offset="0.242188"/><stop stop-opacity="1" stop-color="rgb(24.139404%, 28.141785%, 94.102478%)" offset="0.246094"/><stop stop-opacity="1" stop-color="rgb(24.659729%, 28.128052%, 94.006348%)" offset="0.25"/><stop stop-opacity="1" stop-color="rgb(25.178528%, 28.114319%, 93.908691%)" offset="0.253906"/><stop stop-opacity="1" stop-color="rgb(25.698853%, 28.100586%, 93.812561%)" offset="0.257812"/><stop stop-opacity="1" stop-color="rgb(26.217651%, 28.086853%, 93.716431%)" offset="0.261719"/><stop stop-opacity="1" stop-color="rgb(26.73645%, 28.07312%, 93.6203%)" offset="0.265625"/><stop stop-opacity="1" stop-color="rgb(27.255249%, 28.059387%, 93.52417%)" offset="0.269531"/><stop stop-opacity="1" stop-color="rgb(27.775574%, 28.045654%, 93.42804%)" offset="0.273438"/><stop stop-opacity="1" stop-color="rgb(28.294373%, 28.031921%, 93.330383%)" offset="0.277344"/><stop stop-opacity="1" stop-color="rgb(28.814697%, 28.018188%, 93.234253%)" offset="0.28125"/><stop stop-opacity="1" stop-color="rgb(29.333496%, 28.004456%, 93.138123%)" offset="0.285156"/><stop stop-opacity="1" stop-color="rgb(29.853821%, 27.990723%, 93.041992%)" offset="0.289062"/><stop stop-opacity="1" stop-color="rgb(30.37262%, 27.97699%, 92.945862%)" offset="0.292969"/><stop stop-opacity="1" stop-color="rgb(30.892944%, 27.963257%, 92.849731%)" offset="0.296875"/><stop stop-opacity="1" stop-color="rgb(31.411743%, 27.949524%, 92.753601%)" offset="0.300781"/><stop stop-opacity="1" stop-color="rgb(31.930542%, 27.935791%, 92.657471%)" offset="0.304688"/><stop stop-opacity="1" stop-color="rgb(32.449341%, 27.922058%, 92.559814%)" offset="0.308594"/><stop stop-opacity="1" stop-color="rgb(32.969666%, 27.908325%, 92.463684%)" offset="0.3125"/><stop stop-opacity="1" stop-color="rgb(33.488464%, 27.894592%, 92.367554%)" offset="0.316406"/><stop stop-opacity="1" stop-color="rgb(34.008789%, 27.880859%, 92.271423%)" offset="0.320313"/><stop stop-opacity="1" stop-color="rgb(34.527588%, 27.867126%, 92.175293%)" offset="0.324219"/><stop stop-opacity="1" stop-color="rgb(35.047913%, 27.853394%, 92.079163%)" offset="0.328125"/><stop stop-opacity="1" stop-color="rgb(35.566711%, 27.839661%, 91.983032%)" offset="0.332031"/><stop stop-opacity="1" stop-color="rgb(36.08551%, 27.825928%, 91.886902%)" offset="0.335938"/><stop stop-opacity="1" stop-color="rgb(36.604309%, 27.812195%, 91.789246%)" offset="0.339844"/><stop stop-opacity="1" stop-color="rgb(37.124634%, 27.798462%, 91.693115%)" offset="0.34375"/><stop stop-opacity="1" stop-color="rgb(37.643433%, 27.784729%, 91.596985%)" offset="0.347656"/><stop stop-opacity="1" stop-color="rgb(38.163757%, 27.770996%, 91.500854%)" offset="0.351563"/><stop stop-opacity="1" stop-color="rgb(38.682556%, 27.757263%, 91.404724%)" offset="0.355469"/><stop stop-opacity="1" stop-color="rgb(39.202881%, 27.74353%, 91.308594%)" offset="0.359375"/><stop stop-opacity="1" stop-color="rgb(39.72168%, 27.729797%, 91.210938%)" offset="0.363281"/><stop stop-opacity="1" stop-color="rgb(40.242004%, 27.716064%, 91.114807%)" offset="0.367188"/><stop stop-opacity="1" stop-color="rgb(40.760803%, 27.702332%, 91.018677%)" offset="0.371094"/><stop stop-opacity="1" stop-color="rgb(41.279602%, 27.688599%, 90.922546%)" offset="0.375"/><stop stop-opacity="1" stop-color="rgb(41.798401%, 27.674866%, 90.826416%)" offset="0.378906"/><stop stop-opacity="1" stop-color="rgb(42.318726%, 27.661133%, 90.730286%)" offset="0.382813"/><stop stop-opacity="1" stop-color="rgb(42.837524%, 27.6474%, 90.634155%)" offset="0.386719"/><stop stop-opacity="1" stop-color="rgb(43.357849%, 27.633667%, 90.538025%)" offset="0.390625"/><stop stop-opacity="1" stop-color="rgb(43.876648%, 27.619934%, 90.440369%)" offset="0.394531"/><stop stop-opacity="1" stop-color="rgb(44.396973%, 27.606201%, 90.344238%)" offset="0.398438"/><stop stop-opacity="1" stop-color="rgb(44.915771%, 27.592468%, 90.248108%)" offset="0.402344"/><stop stop-opacity="1" stop-color="rgb(45.43457%, 27.578735%, 90.151978%)" offset="0.40625"/><stop stop-opacity="1" stop-color="rgb(45.953369%, 27.565002%, 90.055847%)" offset="0.410156"/><stop stop-opacity="1" stop-color="rgb(46.473694%, 27.55127%, 89.959717%)" offset="0.414062"/><stop stop-opacity="1" stop-color="rgb(46.992493%, 27.537537%, 89.862061%)" offset="0.417969"/><stop stop-opacity="1" stop-color="rgb(47.512817%, 27.523804%, 89.76593%)" offset="0.421875"/><stop stop-opacity="1" stop-color="rgb(48.031616%, 27.510071%, 89.6698%)" offset="0.425781"/><stop stop-opacity="1" stop-color="rgb(48.551941%, 27.496338%, 89.573669%)" offset="0.429688"/><stop stop-opacity="1" stop-color="rgb(49.07074%, 27.481079%, 89.477539%)" offset="0.433594"/><stop stop-opacity="1" stop-color="rgb(49.589539%, 27.467346%, 89.381409%)" offset="0.4375"/><stop stop-opacity="1" stop-color="rgb(50.108337%, 27.453613%, 89.285278%)" offset="0.441406"/><stop stop-opacity="1" stop-color="rgb(50.628662%, 27.43988%, 89.189148%)" offset="0.445312"/><stop stop-opacity="1" stop-color="rgb(51.147461%, 27.426147%, 89.091492%)" offset="0.449219"/><stop stop-opacity="1" stop-color="rgb(51.667786%, 27.412415%, 88.995361%)" offset="0.453125"/><stop stop-opacity="1" stop-color="rgb(52.186584%, 27.398682%, 88.899231%)" offset="0.457031"/><stop stop-opacity="1" stop-color="rgb(52.706909%, 27.384949%, 88.803101%)" offset="0.460938"/><stop stop-opacity="1" stop-color="rgb(53.225708%, 27.371216%, 88.70697%)" offset="0.464844"/><stop stop-opacity="1" stop-color="rgb(53.746033%, 27.357483%, 88.61084%)" offset="0.46875"/><stop stop-opacity="1" stop-color="rgb(54.264832%, 27.34375%, 88.513184%)" offset="0.472656"/><stop stop-opacity="1" stop-color="rgb(54.78363%, 27.330017%, 88.417053%)" offset="0.476562"/><stop stop-opacity="1" stop-color="rgb(55.302429%, 27.316284%, 88.320923%)" offset="0.480469"/><stop stop-opacity="1" stop-color="rgb(55.822754%, 27.302551%, 88.224792%)" offset="0.484375"/><stop stop-opacity="1" stop-color="rgb(56.341553%, 27.288818%, 88.128662%)" offset="0.488281"/><stop stop-opacity="1" stop-color="rgb(56.861877%, 27.275085%, 88.032532%)" offset="0.492188"/><stop stop-opacity="1" stop-color="rgb(57.380676%, 27.261353%, 87.936401%)" offset="0.496094"/><stop stop-opacity="1" stop-color="rgb(57.901001%, 27.24762%, 87.840271%)" offset="0.5"/><stop stop-opacity="1" stop-color="rgb(58.4198%, 27.233887%, 87.742615%)" offset="0.503906"/><stop stop-opacity="1" stop-color="rgb(58.938599%, 27.220154%, 87.646484%)" offset="0.507812"/><stop stop-opacity="1" stop-color="rgb(59.457397%, 27.206421%, 87.550354%)" offset="0.511719"/><stop stop-opacity="1" stop-color="rgb(59.977722%, 27.192688%, 87.454224%)" offset="0.515625"/><stop stop-opacity="1" stop-color="rgb(60.496521%, 27.178955%, 87.358093%)" offset="0.519531"/><stop stop-opacity="1" stop-color="rgb(61.016846%, 27.165222%, 87.261963%)" offset="0.523438"/><stop stop-opacity="1" stop-color="rgb(61.535645%, 27.151489%, 87.165833%)" offset="0.527344"/><stop stop-opacity="1" stop-color="rgb(62.055969%, 27.137756%, 87.069702%)" offset="0.53125"/><stop stop-opacity="1" stop-color="rgb(62.574768%, 27.124023%, 86.972046%)" offset="0.535156"/><stop stop-opacity="1" stop-color="rgb(63.093567%, 27.110291%, 86.875916%)" offset="0.539062"/><stop stop-opacity="1" stop-color="rgb(63.612366%, 27.096558%, 86.779785%)" offset="0.542969"/><stop stop-opacity="1" stop-color="rgb(64.13269%, 27.082825%, 86.683655%)" offset="0.546875"/><stop stop-opacity="1" stop-color="rgb(64.651489%, 27.069092%, 86.587524%)" offset="0.550781"/><stop stop-opacity="1" stop-color="rgb(65.171814%, 27.055359%, 86.491394%)" offset="0.554688"/><stop stop-opacity="1" stop-color="rgb(65.690613%, 27.041626%, 86.393738%)" offset="0.558594"/><stop stop-opacity="1" stop-color="rgb(66.210938%, 27.027893%, 86.297607%)" offset="0.5625"/><stop stop-opacity="1" stop-color="rgb(66.729736%, 27.01416%, 86.201477%)" offset="0.566406"/><stop stop-opacity="1" stop-color="rgb(67.250061%, 27.000427%, 86.105347%)" offset="0.570312"/><stop stop-opacity="1" stop-color="rgb(67.76886%, 26.986694%, 86.009216%)" offset="0.574219"/><stop stop-opacity="1" stop-color="rgb(68.287659%, 26.972961%, 85.913086%)" offset="0.578125"/><stop stop-opacity="1" stop-color="rgb(68.806458%, 26.959229%, 85.816956%)" offset="0.582031"/><stop stop-opacity="1" stop-color="rgb(69.326782%, 26.945496%, 85.720825%)" offset="0.585938"/><stop stop-opacity="1" stop-color="rgb(69.845581%, 26.931763%, 85.623169%)" offset="0.589844"/><stop stop-opacity="1" stop-color="rgb(70.365906%, 26.91803%, 85.527039%)" offset="0.59375"/><stop stop-opacity="1" stop-color="rgb(70.884705%, 26.904297%, 85.430908%)" offset="0.597656"/><stop stop-opacity="1" stop-color="rgb(71.405029%, 26.890564%, 85.334778%)" offset="0.601563"/><stop stop-opacity="1" stop-color="rgb(71.923828%, 26.876831%, 85.238647%)" offset="0.605469"/><stop stop-opacity="1" stop-color="rgb(72.442627%, 26.863098%, 85.142517%)" offset="0.609375"/><stop stop-opacity="1" stop-color="rgb(72.961426%, 26.849365%, 85.044861%)" offset="0.613281"/><stop stop-opacity="1" stop-color="rgb(73.48175%, 26.835632%, 84.94873%)" offset="0.617188"/><stop stop-opacity="1" stop-color="rgb(74.000549%, 26.821899%, 84.8526%)" offset="0.621094"/><stop stop-opacity="1" stop-color="rgb(74.520874%, 26.808167%, 84.75647%)" offset="0.625"/><stop stop-opacity="1" stop-color="rgb(75.039673%, 26.792908%, 84.660339%)" offset="0.628906"/><stop stop-opacity="1" stop-color="rgb(75.559998%, 26.779175%, 84.564209%)" offset="0.632813"/><stop stop-opacity="1" stop-color="rgb(76.078796%, 26.765442%, 84.468079%)" offset="0.636719"/><stop stop-opacity="1" stop-color="rgb(76.597595%, 26.751709%, 84.371948%)" offset="0.640625"/><stop stop-opacity="1" stop-color="rgb(77.116394%, 26.737976%, 84.274292%)" offset="0.644531"/><stop stop-opacity="1" stop-color="rgb(77.636719%, 26.724243%, 84.178162%)" offset="0.648438"/><stop stop-opacity="1" stop-color="rgb(78.155518%, 26.71051%, 84.082031%)" offset="0.652344"/><stop stop-opacity="1" stop-color="rgb(78.675842%, 26.696777%, 83.985901%)" offset="0.65625"/><stop stop-opacity="1" stop-color="rgb(79.194641%, 26.683044%, 83.889771%)" offset="0.660156"/><stop stop-opacity="1" stop-color="rgb(79.714966%, 26.669312%, 83.79364%)" offset="0.664062"/><stop stop-opacity="1" stop-color="rgb(80.233765%, 26.655579%, 83.69751%)" offset="0.667969"/><stop stop-opacity="1" stop-color="rgb(80.754089%, 26.641846%, 83.601379%)" offset="0.671875"/><stop stop-opacity="1" stop-color="rgb(81.272888%, 26.628113%, 83.503723%)" offset="0.675781"/><stop stop-opacity="1" stop-color="rgb(81.791687%, 26.61438%, 83.407593%)" offset="0.679688"/><stop stop-opacity="1" stop-color="rgb(82.310486%, 26.600647%, 83.311462%)" offset="0.683594"/><stop stop-opacity="1" stop-color="rgb(82.830811%, 26.586914%, 83.215332%)" offset="0.6875"/><stop stop-opacity="1" stop-color="rgb(83.349609%, 26.573181%, 83.119202%)" offset="0.691406"/><stop stop-opacity="1" stop-color="rgb(83.869934%, 26.559448%, 83.023071%)" offset="0.695312"/><stop stop-opacity="1" stop-color="rgb(84.388733%, 26.545715%, 82.925415%)" offset="0.699219"/><stop stop-opacity="1" stop-color="rgb(84.909058%, 26.531982%, 82.829285%)" offset="0.703125"/><stop stop-opacity="1" stop-color="rgb(85.427856%, 26.51825%, 82.733154%)" offset="0.707031"/><stop stop-opacity="1" stop-color="rgb(85.946655%, 26.504517%, 82.637024%)" offset="0.710938"/><stop stop-opacity="1" stop-color="rgb(86.465454%, 26.490784%, 82.540894%)" offset="0.714844"/><stop stop-opacity="1" stop-color="rgb(86.985779%, 26.477051%, 82.444763%)" offset="0.71875"/><stop stop-opacity="1" stop-color="rgb(87.504578%, 26.463318%, 82.348633%)" offset="0.722656"/><stop stop-opacity="1" stop-color="rgb(88.024902%, 26.449585%, 82.252502%)" offset="0.726562"/><stop stop-opacity="1" stop-color="rgb(88.543701%, 26.435852%, 82.154846%)" offset="0.730469"/><stop stop-opacity="1" stop-color="rgb(89.064026%, 26.422119%, 82.058716%)" offset="0.734375"/><stop stop-opacity="1" stop-color="rgb(89.582825%, 26.408386%, 81.962585%)" offset="0.738281"/><stop stop-opacity="1" stop-color="rgb(90.103149%, 26.394653%, 81.866455%)" offset="0.742188"/><stop stop-opacity="1" stop-color="rgb(90.621948%, 26.38092%, 81.770325%)" offset="0.746094"/><stop stop-opacity="1" stop-color="rgb(91.140747%, 26.367188%, 81.674194%)" offset="0.75"/><stop stop-opacity="1" stop-color="rgb(91.659546%, 26.353455%, 81.576538%)" offset="0.753906"/><stop stop-opacity="1" stop-color="rgb(92.179871%, 26.339722%, 81.480408%)" offset="0.757813"/><stop stop-opacity="1" stop-color="rgb(92.698669%, 26.325989%, 81.384277%)" offset="0.761719"/><stop stop-opacity="1" stop-color="rgb(93.218994%, 26.312256%, 81.288147%)" offset="0.765625"/><stop stop-opacity="1" stop-color="rgb(93.458557%, 26.304626%, 81.243896%)" offset="0.769531"/><stop stop-opacity="1" stop-color="rgb(93.699646%, 26.298523%, 81.199646%)" offset="0.773438"/><stop stop-opacity="1" stop-color="rgb(93.699646%, 26.298523%, 81.199646%)" offset="0.78125"/><stop stop-opacity="1" stop-color="rgb(93.699646%, 26.298523%, 81.199646%)" offset="0.8125"/><stop stop-opacity="1" stop-color="rgb(93.699646%, 26.298523%, 81.199646%)" offset="0.875"/><stop stop-opacity="1" stop-color="rgb(93.699646%, 26.298523%, 81.199646%)" offset="1"/></linearGradient></defs><g clip-path="url(#7c3b3e8c98)"><g clip-path="url(#314c9592c6)"><g clip-path="url(#a3518bf39a)"><g clip-path="url(#ebee904fe5)"><g clip-path="url(#24c5b3ae98)"><path fill="url(#4b476b729b)" d="M -10.464844 144.382812 L 187.816406 342.664062 L 386.09375 144.382812 L 187.816406 -53.894531 Z M -10.464844 144.382812 " fill-rule="nonzero"/></g></g></g></g></g><g fill="#3848f1" fill-opacity="1"><g transform="translate(70.861093, 310.52955)"><g><path d="M 9.296875 -28.734375 L 17.859375 -28.734375 L 17.859375 -0.5 C 17.859375 -0.164062 17.632812 0 17.1875 0 L 9.921875 0 C 9.503906 0 9.296875 -0.164062 9.296875 -0.5 Z M 0.625 -37.359375 C 0.207031 -37.359375 0 -37.523438 0 -37.859375 L 0 -44.5625 C 0 -44.90625 0.207031 -45.078125 0.625 -45.078125 L 26.484375 -45.078125 C 26.890625 -45.078125 27.09375 -44.90625 27.09375 -44.5625 L 27.09375 -37.859375 C 27.09375 -37.523438 26.890625 -37.359375 26.484375 -37.359375 Z M 0.625 -37.359375 "/></g></g></g><g fill="#3848f1" fill-opacity="1"><g transform="translate(99.306782, 310.52955)"><g><path d="M 21.40625 -8.390625 L 21.40625 0 L 0.625 0 C 0.207031 0 0 -0.164062 0 -0.5 L 0 -44.5625 C 0 -44.90625 0.207031 -45.078125 0.625 -45.078125 L 21.40625 -45.078125 L 21.40625 -36.90625 L 8.625 -36.90625 L 8.625 -26.703125 L 26.3125 -26.703125 C 26.726562 -26.703125 26.9375 -26.535156 26.9375 -26.203125 L 26.9375 -19.046875 C 26.9375 -18.703125 26.726562 -18.53125 26.3125 -18.53125 L 8.625 -18.53125 L 8.625 -8.390625 Z M 21.40625 -8.390625 "/></g></g></g><g fill="#3848f1" fill-opacity="1"><g transform="translate(127.583486, 310.52955)"><g><path d="M 25.75 -8.28125 L 34.375 -8.28125 L 34.375 -0.5 C 34.375 -0.164062 34.164062 0 33.75 0 L 26.421875 0 C 24.171875 0 21.820312 -0.164062 19.375 -0.5 C 16.9375 -0.84375 14.570312 -1.472656 12.28125 -2.390625 C 9.988281 -3.316406 7.910156 -4.613281 6.046875 -6.28125 C 4.191406 -7.957031 2.71875 -10.117188 1.625 -12.765625 C 0.539062 -15.410156 0 -18.664062 0 -22.53125 C 0 -26.519531 0.550781 -29.863281 1.65625 -32.5625 C 2.769531 -35.269531 4.253906 -37.445312 6.109375 -39.09375 C 7.972656 -40.75 10.054688 -42.007812 12.359375 -42.875 C 14.671875 -43.738281 17.035156 -44.320312 19.453125 -44.625 C 21.878906 -44.925781 24.203125 -45.078125 26.421875 -45.078125 L 33.75 -45.078125 C 34.164062 -45.078125 34.375 -44.90625 34.375 -44.5625 L 34.375 -26.875 L 25.75 -26.875 L 25.75 -36.84375 C 22.476562 -37.03125 19.554688 -36.664062 16.984375 -35.75 C 14.410156 -34.832031 12.378906 -33.289062 10.890625 -31.125 C 9.410156 -28.96875 8.671875 -26.101562 8.671875 -22.53125 C 8.671875 -19.757812 9.070312 -17.46875 9.875 -15.65625 C 10.6875 -13.851562 11.757812 -12.445312 13.09375 -11.4375 C 14.425781 -10.425781 15.863281 -9.6875 17.40625 -9.21875 C 18.945312 -8.75 20.445312 -8.460938 21.90625 -8.359375 C 23.375 -8.265625 24.65625 -8.238281 25.75 -8.28125 Z M 25.75 -8.28125 "/></g></g></g><g fill="#3848f1" fill-opacity="1"><g transform="translate(163.689813, 310.52955)"><g><path d="M 8.625 -25.53125 L 0 -25.53125 L 0 -44.5625 C 0 -44.90625 0.207031 -45.078125 0.625 -45.078125 L 8 -45.078125 C 8.414062 -45.078125 8.625 -44.90625 8.625 -44.5625 Z M 33.6875 -45.078125 C 34.101562 -45.078125 34.3125 -44.90625 34.3125 -44.5625 L 34.3125 -0.5 C 34.3125 -0.164062 34.101562 0 33.6875 0 L 26.3125 0 C 25.894531 0 25.6875 -0.164062 25.6875 -0.5 L 25.6875 -8.453125 L 8.625 -8.453125 L 8.625 -0.5 C 8.625 -0.164062 8.414062 0 8 0 L 0.625 0 C 0.207031 0 0 -0.164062 0 -0.5 L 0 -16.90625 L 8.625 -16.90625 L 8.625 -16.84375 L 25.6875 -16.84375 L 25.6875 -44.5625 C 25.6875 -44.90625 25.894531 -45.078125 26.3125 -45.078125 Z M 33.6875 -45.078125 "/></g></g></g><g fill="#ef43cf" fill-opacity="1"><g transform="translate(199.742361, 310.52955)"><g><path d="M 21.96875 -31.671875 C 21.96875 -33.015625 21.628906 -34.050781 20.953125 -34.78125 C 20.285156 -35.519531 19.519531 -36.046875 18.65625 -36.359375 C 17.789062 -36.679688 17.019531 -36.867188 16.34375 -36.921875 C 15.664062 -36.984375 15.328125 -37.015625 15.328125 -37.015625 L 8.5625 -37.015625 L 8.5625 -26.703125 L 15.328125 -26.703125 C 15.328125 -26.703125 15.664062 -26.726562 16.34375 -26.78125 C 17.019531 -26.84375 17.789062 -27.023438 18.65625 -27.328125 C 19.519531 -27.628906 20.285156 -28.117188 20.953125 -28.796875 C 21.628906 -29.472656 21.96875 -30.429688 21.96875 -31.671875 Z M 30.59375 -32.171875 C 30.59375 -29.546875 29.984375 -27.460938 28.765625 -25.921875 C 27.546875 -24.378906 26.070312 -23.25 24.34375 -22.53125 C 26.144531 -21.9375 27.515625 -21.117188 28.453125 -20.078125 C 29.390625 -19.046875 30.054688 -17.992188 30.453125 -16.921875 C 30.847656 -15.859375 31.070312 -14.957031 31.125 -14.21875 C 31.1875 -13.488281 31.21875 -13.125 31.21875 -13.125 C 31.21875 -10.613281 30.773438 -8.546875 29.890625 -6.921875 C 29.003906 -5.304688 27.875 -4.03125 26.5 -3.09375 C 25.132812 -2.15625 23.707031 -1.460938 22.21875 -1.015625 C 20.738281 -0.566406 19.367188 -0.285156 18.109375 -0.171875 C 16.859375 -0.0546875 15.929688 0 15.328125 0 L 8.625 0 L 8.625 -8.21875 L 15.328125 -8.21875 C 16.265625 -8.21875 17.296875 -8.335938 18.421875 -8.578125 C 19.546875 -8.828125 20.519531 -9.328125 21.34375 -10.078125 C 22.175781 -10.835938 22.59375 -11.929688 22.59375 -13.359375 C 22.59375 -14.410156 22.347656 -15.265625 21.859375 -15.921875 C 21.367188 -16.578125 20.765625 -17.070312 20.046875 -17.40625 C 19.335938 -17.75 18.617188 -17.972656 17.890625 -18.078125 C 17.160156 -18.191406 16.550781 -18.257812 16.0625 -18.28125 C 15.570312 -18.300781 15.328125 -18.3125 15.328125 -18.3125 L 0 -18.3125 L 0 -44.5625 C 0 -44.90625 0.207031 -45.078125 0.625 -45.078125 L 15.328125 -45.078125 C 15.328125 -45.078125 15.691406 -45.054688 16.421875 -45.015625 C 17.148438 -44.984375 18.097656 -44.863281 19.265625 -44.65625 C 20.429688 -44.445312 21.660156 -44.085938 22.953125 -43.578125 C 24.253906 -43.078125 25.484375 -42.351562 26.640625 -41.40625 C 27.804688 -40.46875 28.753906 -39.25 29.484375 -37.75 C 30.222656 -36.25 30.59375 -34.390625 30.59375 -32.171875 Z M 30.59375 -32.171875 "/></g></g></g><g fill="#ef43cf" fill-opacity="1"><g transform="translate(232.525324, 310.52955)"><g><path d="M 33.25 -45.078125 C 33.625 -45.078125 33.8125 -44.90625 33.8125 -44.5625 L 33.8125 -15.046875 C 33.8125 -11.890625 33.066406 -9.179688 31.578125 -6.921875 C 30.097656 -4.671875 28.078125 -2.953125 25.515625 -1.765625 C 22.960938 -0.585938 20.09375 0 16.90625 0 C 13.820312 0 10.992188 -0.609375 8.421875 -1.828125 C 5.847656 -3.046875 3.800781 -4.78125 2.28125 -7.03125 C 0.757812 -9.289062 0 -11.960938 0 -15.046875 L 0 -36.90625 L 8.515625 -36.90625 L 8.515625 -15.09375 C 8.773438 -12.882812 9.71875 -11.195312 11.34375 -10.03125 C 12.976562 -8.863281 14.832031 -8.28125 16.90625 -8.28125 C 18.332031 -8.28125 19.679688 -8.523438 20.953125 -9.015625 C 22.234375 -9.503906 23.273438 -10.253906 24.078125 -11.265625 C 24.890625 -12.285156 25.296875 -13.546875 25.296875 -15.046875 L 25.296875 -44.5625 C 25.296875 -44.90625 25.503906 -45.078125 25.921875 -45.078125 Z M 33.25 -45.078125 "/></g></g></g><g fill="#ef43cf" fill-opacity="1"><g transform="translate(268.012026, 310.52955)"><g><path d="M 34.375 -36.796875 L 25.75 -36.796875 C 24.65625 -36.828125 23.375 -36.796875 21.90625 -36.703125 C 20.445312 -36.609375 18.945312 -36.328125 17.40625 -35.859375 C 15.863281 -35.390625 14.425781 -34.644531 13.09375 -33.625 C 11.757812 -32.613281 10.6875 -31.207031 9.875 -29.40625 C 9.070312 -27.601562 8.671875 -25.3125 8.671875 -22.53125 C 8.671875 -18.96875 9.410156 -16.101562 10.890625 -13.9375 C 12.378906 -11.78125 14.410156 -10.25 16.984375 -9.34375 C 19.554688 -8.445312 22.476562 -8.070312 25.75 -8.21875 L 25.75 -19.5 L 17.078125 -19.5 L 17.078125 -28.109375 L 34.375 -28.109375 L 34.375 -0.5 C 34.375 -0.164062 34.164062 0 33.75 0 L 26.421875 0 C 24.203125 0 21.878906 -0.148438 19.453125 -0.453125 C 17.035156 -0.753906 14.671875 -1.335938 12.359375 -2.203125 C 10.054688 -3.066406 7.972656 -4.320312 6.109375 -5.96875 C 4.253906 -7.625 2.769531 -9.800781 1.65625 -12.5 C 0.550781 -15.207031 0 -18.550781 0 -22.53125 C 0 -26.40625 0.539062 -29.664062 1.625 -32.3125 C 2.71875 -34.957031 4.191406 -37.113281 6.046875 -38.78125 C 7.910156 -40.457031 9.988281 -41.753906 12.28125 -42.671875 C 14.570312 -43.597656 16.9375 -44.226562 19.375 -44.5625 C 21.820312 -44.90625 24.171875 -45.078125 26.421875 -45.078125 L 33.75 -45.078125 C 34.164062 -45.078125 34.375 -44.90625 34.375 -44.5625 Z M 34.375 -36.796875 "/></g></g></g></svg>