<svg xmlns="http://www.w3.org/2000/svg" xmlns:xlink="http://www.w3.org/1999/xlink" width="500" zoomAndPan="magnify" viewBox="0 0 375 374.999991" height="500" preserveAspectRatio="xMidYMid meet" version="1.0"><defs><g/></defs><g fill="#3848f1" fill-opacity="1"><g transform="translate(37.543904, 221.210599)"><g><path d="M 11.953125 -36.9375 L 22.96875 -36.9375 L 22.96875 -0.65625 C 22.96875 -0.21875 22.675781 0 22.09375 0 L 12.75 0 C 12.21875 0 11.953125 -0.21875 11.953125 -0.65625 Z M 0.796875 -48.03125 C 0.265625 -48.03125 0 -48.242188 0 -48.671875 L 0 -57.296875 C 0 -57.734375 0.265625 -57.953125 0.796875 -57.953125 L 34.046875 -57.953125 C 34.578125 -57.953125 34.84375 -57.734375 34.84375 -57.296875 L 34.84375 -48.671875 C 34.84375 -48.242188 34.578125 -48.03125 34.046875 -48.03125 Z M 0.796875 -48.03125 "/></g></g></g><g fill="#3848f1" fill-opacity="1"><g transform="translate(74.116664, 221.210599)"><g><path d="M 27.53125 -10.796875 L 27.53125 0 L 0.796875 0 C 0.265625 0 0 -0.21875 0 -0.65625 L 0 -57.296875 C 0 -57.734375 0.265625 -57.953125 0.796875 -57.953125 L 27.53125 -57.953125 L 27.53125 -47.453125 L 11.078125 -47.453125 L 11.078125 -34.328125 L 33.828125 -34.328125 C 34.359375 -34.328125 34.625 -34.113281 34.625 -33.6875 L 34.625 -24.484375 C 34.625 -24.046875 34.359375 -23.828125 33.828125 -23.828125 L 11.078125 -23.828125 L 11.078125 -10.796875 Z M 27.53125 -10.796875 "/></g></g></g><g fill="#3848f1" fill-opacity="1"><g transform="translate(110.472157, 221.210599)"><g><path d="M 33.109375 -10.640625 L 44.1875 -10.640625 L 44.1875 -0.65625 C 44.1875 -0.21875 43.921875 0 43.390625 0 L 33.96875 0 C 31.070312 0 28.050781 -0.210938 24.90625 -0.640625 C 21.769531 -1.078125 18.726562 -1.890625 15.78125 -3.078125 C 12.84375 -4.265625 10.175781 -5.929688 7.78125 -8.078125 C 5.394531 -10.222656 3.5 -13 2.09375 -16.40625 C 0.695312 -19.8125 0 -24 0 -28.96875 C 0 -34.09375 0.710938 -38.390625 2.140625 -41.859375 C 3.566406 -45.335938 5.472656 -48.140625 7.859375 -50.265625 C 10.242188 -52.390625 12.921875 -54.007812 15.890625 -55.125 C 18.867188 -56.238281 21.914062 -56.988281 25.03125 -57.375 C 28.144531 -57.757812 31.125 -57.953125 33.96875 -57.953125 L 43.390625 -57.953125 C 43.921875 -57.953125 44.1875 -57.734375 44.1875 -57.296875 L 44.1875 -34.546875 L 33.109375 -34.546875 L 33.109375 -47.375 C 28.898438 -47.613281 25.140625 -47.140625 21.828125 -45.953125 C 18.523438 -44.773438 15.921875 -42.796875 14.015625 -40.015625 C 12.109375 -37.242188 11.15625 -33.5625 11.15625 -28.96875 C 11.15625 -25.394531 11.671875 -22.445312 12.703125 -20.125 C 13.742188 -17.8125 15.117188 -16.003906 16.828125 -14.703125 C 18.546875 -13.398438 20.394531 -12.445312 22.375 -11.84375 C 24.363281 -11.238281 26.296875 -10.875 28.171875 -10.75 C 30.054688 -10.632812 31.703125 -10.597656 33.109375 -10.640625 Z M 33.109375 -10.640625 "/></g></g></g><g fill="#3848f1" fill-opacity="1"><g transform="translate(156.894235, 221.210599)"><g><path d="M 11.078125 -32.8125 L 0 -32.8125 L 0 -57.296875 C 0 -57.734375 0.265625 -57.953125 0.796875 -57.953125 L 10.28125 -57.953125 C 10.8125 -57.953125 11.078125 -57.734375 11.078125 -57.296875 Z M 43.3125 -57.953125 C 43.84375 -57.953125 44.109375 -57.734375 44.109375 -57.296875 L 44.109375 -0.65625 C 44.109375 -0.21875 43.84375 0 43.3125 0 L 33.828125 0 C 33.296875 0 33.03125 -0.21875 33.03125 -0.65625 L 33.03125 -10.859375 L 11.078125 -10.859375 L 11.078125 -0.65625 C 11.078125 -0.21875 10.8125 0 10.28125 0 L 0.796875 0 C 0.265625 0 0 -0.21875 0 -0.65625 L 0 -21.734375 L 11.078125 -21.734375 L 11.078125 -21.65625 L 33.03125 -21.65625 L 33.03125 -57.296875 C 33.03125 -57.734375 33.296875 -57.953125 33.828125 -57.953125 Z M 43.3125 -57.953125 "/></g></g></g><g fill="#ef43cf" fill-opacity="1"><g transform="translate(203.247168, 221.210599)"><g><path d="M 28.25 -40.703125 C 28.25 -42.441406 27.8125 -43.78125 26.9375 -44.71875 C 26.070312 -45.664062 25.082031 -46.34375 23.96875 -46.75 C 22.863281 -47.164062 21.875 -47.410156 21 -47.484375 C 20.132812 -47.554688 19.703125 -47.59375 19.703125 -47.59375 L 11.015625 -47.59375 L 11.015625 -34.328125 L 19.703125 -34.328125 C 19.703125 -34.328125 20.132812 -34.363281 21 -34.4375 C 21.875 -34.507812 22.863281 -34.738281 23.96875 -35.125 C 25.082031 -35.519531 26.070312 -36.148438 26.9375 -37.015625 C 27.8125 -37.878906 28.25 -39.109375 28.25 -40.703125 Z M 39.328125 -41.359375 C 39.328125 -37.984375 38.539062 -35.300781 36.96875 -33.3125 C 35.40625 -31.332031 33.515625 -29.882812 31.296875 -28.96875 C 33.609375 -28.195312 35.367188 -27.144531 36.578125 -25.8125 C 37.785156 -24.488281 38.640625 -23.140625 39.140625 -21.765625 C 39.648438 -20.390625 39.941406 -19.226562 40.015625 -18.28125 C 40.085938 -17.34375 40.125 -16.875 40.125 -16.875 C 40.125 -13.644531 39.554688 -10.988281 38.421875 -8.90625 C 37.285156 -6.832031 35.835938 -5.191406 34.078125 -3.984375 C 32.316406 -2.773438 30.484375 -1.878906 28.578125 -1.296875 C 26.671875 -0.722656 24.90625 -0.363281 23.28125 -0.21875 C 21.664062 -0.0703125 20.472656 0 19.703125 0 L 11.078125 0 L 11.078125 -10.578125 L 19.703125 -10.578125 C 20.910156 -10.578125 22.238281 -10.734375 23.6875 -11.046875 C 25.132812 -11.359375 26.390625 -12 27.453125 -12.96875 C 28.515625 -13.9375 29.046875 -15.335938 29.046875 -17.171875 C 29.046875 -18.523438 28.734375 -19.625 28.109375 -20.46875 C 27.484375 -21.3125 26.707031 -21.945312 25.78125 -22.375 C 24.863281 -22.8125 23.9375 -23.101562 23 -23.25 C 22.0625 -23.394531 21.273438 -23.476562 20.640625 -23.5 C 20.015625 -23.53125 19.703125 -23.546875 19.703125 -23.546875 L 0 -23.546875 L 0 -57.296875 C 0 -57.734375 0.265625 -57.953125 0.796875 -57.953125 L 19.703125 -57.953125 C 19.703125 -57.953125 20.171875 -57.925781 21.109375 -57.875 C 22.054688 -57.832031 23.273438 -57.675781 24.765625 -57.40625 C 26.265625 -57.144531 27.847656 -56.6875 29.515625 -56.03125 C 31.179688 -55.375 32.765625 -54.441406 34.265625 -53.234375 C 35.765625 -52.035156 36.984375 -50.46875 37.921875 -48.53125 C 38.859375 -46.601562 39.328125 -44.210938 39.328125 -41.359375 Z M 39.328125 -41.359375 "/></g></g></g><g fill="#ef43cf" fill-opacity="1"><g transform="translate(245.39638, 221.210599)"><g><path d="M 42.734375 -57.953125 C 43.222656 -57.953125 43.46875 -57.734375 43.46875 -57.296875 L 43.46875 -19.34375 C 43.46875 -15.28125 42.507812 -11.800781 40.59375 -8.90625 C 38.6875 -6.007812 36.09375 -3.800781 32.8125 -2.28125 C 29.53125 -0.757812 25.835938 0 21.734375 0 C 17.773438 0 14.140625 -0.78125 10.828125 -2.34375 C 7.523438 -3.914062 4.894531 -6.148438 2.9375 -9.046875 C 0.976562 -11.953125 0 -15.382812 0 -19.34375 L 0 -47.453125 L 10.9375 -47.453125 L 10.9375 -19.40625 C 11.269531 -16.5625 12.488281 -14.390625 14.59375 -12.890625 C 16.695312 -11.390625 19.078125 -10.640625 21.734375 -10.640625 C 23.566406 -10.640625 25.300781 -10.953125 26.9375 -11.578125 C 28.582031 -12.210938 29.925781 -13.179688 30.96875 -14.484375 C 32.007812 -15.785156 32.53125 -17.40625 32.53125 -19.34375 L 32.53125 -57.296875 C 32.53125 -57.734375 32.796875 -57.953125 33.328125 -57.953125 Z M 42.734375 -57.953125 "/></g></g></g><g fill="#ef43cf" fill-opacity="1"><g transform="translate(291.021804, 221.210599)"><g><path d="M 44.1875 -47.296875 L 33.109375 -47.296875 C 31.703125 -47.347656 30.054688 -47.3125 28.171875 -47.1875 C 26.296875 -47.070312 24.363281 -46.710938 22.375 -46.109375 C 20.394531 -45.503906 18.546875 -44.550781 16.828125 -43.25 C 15.117188 -41.945312 13.742188 -40.132812 12.703125 -37.8125 C 11.671875 -35.488281 11.15625 -32.539062 11.15625 -28.96875 C 11.15625 -24.382812 12.109375 -20.703125 14.015625 -17.921875 C 15.921875 -15.148438 18.523438 -13.179688 21.828125 -12.015625 C 25.140625 -10.859375 28.898438 -10.378906 33.109375 -10.578125 L 33.109375 -25.0625 L 21.953125 -25.0625 L 21.953125 -36.140625 L 44.1875 -36.140625 L 44.1875 -0.65625 C 44.1875 -0.21875 43.921875 0 43.390625 0 L 33.96875 0 C 31.125 0 28.144531 -0.191406 25.03125 -0.578125 C 21.914062 -0.960938 18.867188 -1.707031 15.890625 -2.8125 C 12.921875 -3.925781 10.242188 -5.546875 7.859375 -7.671875 C 5.472656 -9.796875 3.566406 -12.597656 2.140625 -16.078125 C 0.710938 -19.554688 0 -23.851562 0 -28.96875 C 0 -33.945312 0.695312 -38.140625 2.09375 -41.546875 C 3.5 -44.953125 5.394531 -47.726562 7.78125 -49.875 C 10.175781 -52.019531 12.84375 -53.679688 15.78125 -54.859375 C 18.726562 -56.046875 21.769531 -56.859375 24.90625 -57.296875 C 28.050781 -57.734375 31.070312 -57.953125 33.96875 -57.953125 L 43.390625 -57.953125 C 43.921875 -57.953125 44.1875 -57.734375 44.1875 -57.296875 Z M 44.1875 -47.296875 "/></g></g></g></svg>